<svg width="150" height="150" viewBox="0 0 150 150" fill="none" xmlns="http://www.w3.org/2000/svg">
<circle cx="75" cy="75" r="74.5" fill="white" stroke="#0F0E38"/>
<path d="M93.1237 45C93.7298 45 94.2926 45.3188 94.6421 45.845L94.7784 46.0829L104.796 66.5722L104.903 66.8515L104.932 66.9545L104.975 67.1654L104.998 67.4054L104.993 67.6765L105 67.5C105 67.7866 104.946 68.0596 104.848 68.3075L104.776 68.4701L104.675 68.6517L104.543 68.8385L76.4967 104.195C76.2464 104.561 75.9036 104.803 75.5313 104.919L75.3863 104.957L75.1428 104.994L74.9963 105L74.7447 104.981L74.532 104.938L74.2737 104.845L74.2094 104.812C73.9837 104.703 73.7761 104.541 73.6026 104.328L45.4203 68.799L45.2651 68.5601L45.1453 68.3062L45.0586 68.0354L45.0007 67.6778L45 67.3304L45.0372 67.0612L45.0611 66.9543L45.1459 66.6922L45.2142 66.5375L55.2153 46.0829C55.5005 45.4997 56.0232 45.108 56.6134 45.0192L56.8699 45H93.1237ZM84.7628 69.5455H65.2232L74.9993 97.2545L84.7628 69.5455ZM61.2079 69.5455H50.9668L69.4012 92.7764L61.2079 69.5455ZM99.0194 69.5455H88.7858L80.6024 92.7573L99.0194 69.5455ZM65.0557 49.0882H57.9925L49.9892 65.4545H61.0529L65.0557 49.0882ZM81.0549 49.0882H68.9361L64.9333 65.4545H85.0554L81.0549 49.0882ZM91.9986 49.0882H84.9353L88.9383 65.4545H99.997L91.9986 49.0882Z" fill="#0F0E38"/>
</svg>
