<svg width="150" height="150" viewBox="0 0 150 150" fill="none" xmlns="http://www.w3.org/2000/svg">
<circle cx="75" cy="75" r="74.5" fill="white" stroke="#0F0E38"/>
<path d="M52.9057 48.2995C55.7566 47.2441 58.9902 47.9211 61.1787 50.1091C64.2404 53.1709 64.2404 58.1364 61.1785 61.1983C58.1159 64.2609 53.1511 64.2609 50.0885 61.1983C47.8914 59.0012 47.2186 55.7497 48.2922 52.8911C48.5631 52.1697 48.1979 51.3653 47.4765 51.0944C46.7551 50.8234 45.9507 51.1886 45.6798 51.91C44.2247 55.7844 45.1369 60.1931 48.1153 63.1715C52.2677 67.3239 58.9994 67.3239 63.1517 63.1715C67.3034 59.0198 67.3034 52.2874 63.1517 48.1357C60.1854 45.1701 55.8008 44.2521 51.9368 45.6826C51.2142 45.9501 50.8452 46.7528 51.1127 47.4754C51.3803 48.1981 52.183 48.5671 52.9057 48.2995Z" fill="#0F0E38"/>
<path d="M51.1146 48.1615L54.7172 51.7634C55.0122 52.0587 55.0122 52.5388 54.7171 52.8339L52.8147 54.7363C52.5189 55.0321 52.0398 55.0321 51.7441 54.7363L48.1609 51.1539C47.616 50.609 46.7326 50.6091 46.1877 51.1541C45.6429 51.699 45.643 52.5824 46.1879 53.1273L49.771 56.7096C51.1565 58.0951 53.4024 58.0951 54.7879 56.7095L56.6904 54.8071C58.0752 53.4223 58.0752 51.1761 56.6908 49.7905L53.0877 46.1881C52.5427 45.6433 51.6593 45.6434 51.1145 46.1883C50.5696 46.7333 50.5696 47.6167 51.1146 48.1615ZM97.1022 101.748C94.2513 102.804 91.0177 102.127 88.8292 99.9387C85.7674 96.8769 85.7674 91.9114 88.8293 88.8495C91.8919 85.7869 96.8568 85.7869 99.9194 88.8495C102.117 91.0466 102.789 94.298 101.716 97.1566C101.445 97.8781 101.81 98.6825 102.531 98.9534C103.253 99.2243 104.057 98.8592 104.328 98.1378C105.783 94.2634 104.871 89.8546 101.893 86.8763C97.7402 82.7239 91.0085 82.7239 86.8561 86.8763C82.7044 91.0279 82.7044 97.7603 86.8561 101.912C89.8225 104.878 94.2071 105.796 98.071 104.365C98.7937 104.098 99.1627 103.295 98.8951 102.572C98.6276 101.85 97.8249 101.481 97.1023 101.748H97.1022Z" fill="#0F0E38"/>
<path d="M98.8933 101.886L95.2914 98.2842C94.9958 97.9885 94.9958 97.5091 95.291 97.214L97.1934 95.311C97.489 95.0154 97.968 95.0154 98.2638 95.3112L101.847 98.8937C102.392 99.4385 103.275 99.4384 103.82 98.8935C104.365 98.3485 104.365 97.4651 103.82 96.9203L100.237 93.3379C98.8514 91.9525 96.6054 91.9525 95.2199 93.338L93.318 95.2406C91.9326 96.6249 91.9326 98.8718 93.3182 100.257L96.9201 103.859C97.465 104.404 98.3484 104.404 98.8933 103.859C99.4382 103.314 99.4382 102.431 98.8933 101.886L98.8933 101.886ZM86.0686 90.4083L59.4126 63.7523C58.8677 63.2074 57.9843 63.2074 57.4394 63.7523C56.8945 64.2972 56.8945 65.1806 57.4394 65.7255L84.0954 92.3815C84.6403 92.9264 85.5237 92.9264 86.0686 92.3815C86.6135 91.8366 86.6135 90.9532 86.0686 90.4083ZM63.5384 59.1422L90.8153 86.4191C91.3602 86.964 92.2436 86.964 92.7885 86.4191C93.3334 85.8742 93.3334 84.9908 92.7885 84.4459L65.5116 57.169C64.9667 56.6241 64.0833 56.6241 63.5384 57.169C62.9935 57.7139 62.9935 58.5973 63.5384 59.1422ZM80.9737 66.808L93.0142 54.7675C93.5591 54.2226 93.5591 53.3392 93.0142 52.7943C92.4693 52.2494 91.5859 52.2494 91.041 52.7943L79.0005 64.8348C78.4556 65.3797 78.4556 66.2631 79.0005 66.808C79.5454 67.3529 80.4288 67.3529 80.9737 66.808ZM95.58 56.5946L83.1432 68.9106C82.5957 69.4529 82.5914 70.3363 83.1336 70.8838C83.6759 71.4314 84.5593 71.4357 85.1068 70.8935L97.5436 58.5774C98.0911 58.0351 98.0954 57.1517 97.5532 56.6042C97.0109 56.0566 96.1275 56.0523 95.58 56.5946Z" fill="#0F0E38"/>
<path d="M104.549 49.0419C104.734 49.227 104.863 49.4605 104.922 49.7156C104.981 49.9707 104.966 50.2372 104.881 50.4846L102.96 56.0392C102.89 56.2389 102.777 56.4203 102.628 56.5697C102.478 56.7191 102.297 56.8326 102.097 56.9017L96.5418 58.8237C96.2944 58.9093 96.0279 58.9236 95.7727 58.8648C95.5176 58.8061 95.2841 58.6768 95.099 58.4916L91.4663 54.8583C91.2813 54.6732 91.152 54.4398 91.0933 54.1847C91.0346 53.9296 91.0488 53.6631 91.1344 53.4157L93.0557 47.8611C93.1248 47.6615 93.2383 47.4801 93.3877 47.3307C93.5371 47.1813 93.7184 47.0678 93.9181 46.9987L99.4727 45.0767C99.7201 44.9911 99.9866 44.9768 100.242 45.0355C100.497 45.0942 100.73 45.2236 100.915 45.4087L104.549 49.042L104.549 49.0419ZM99.5599 47.9994L95.4714 49.4141L94.0572 53.5028L96.4549 55.901L100.544 54.4862L101.958 50.3977L99.56 47.9994H99.5599ZM70.8666 85.1002L54.341 101.626C53.8302 102.137 53.2167 102.203 52.9965 101.983L47.9182 96.9042C47.6986 96.6844 47.7646 96.0713 48.2757 95.5598L64.7689 79.0673C65.3138 78.5224 65.3138 77.639 64.7689 77.0941C64.2241 76.5492 63.3406 76.5492 62.7957 77.0941L46.3022 93.5869C44.7843 95.1058 44.5307 97.4618 45.9446 98.8769L51.0238 103.956C52.4394 105.37 54.7964 105.117 56.3143 103.599L72.8399 87.0733C73.3847 86.5284 73.3847 85.645 72.8399 85.1001C72.295 84.5552 71.4115 84.5552 70.8667 85.1001L70.8666 85.1002Z" fill="#0F0E38"/>
</svg>
