<svg width="150" height="150" viewBox="0 0 150 150" fill="none" xmlns="http://www.w3.org/2000/svg">
<circle cx="75" cy="75" r="74.5" stroke="#0F0E38"/>
<path d="M70.6489 76.2195C62.8627 76.2195 56.4504 68.9024 56.4504 60.6098C56.4504 52.3171 62.8627 45 71.1069 45C79.3512 45 85.7634 51.8293 85.7634 60.6098C85.7634 69.3903 78.8932 76.2195 70.6489 76.2195ZM70.6489 48.9024C64.6947 48.9024 59.6565 54.2683 59.6565 60.6098C59.6565 66.9512 64.6947 72.3171 70.6489 72.3171C76.6031 72.3171 81.6413 66.9512 81.6413 60.6098C81.6413 54.2683 77.0611 48.9024 70.6489 48.9024Z" fill="#0F0E38"/>
<path d="M94.0076 103.537C94.0076 87.439 83.4732 74.7561 70.6488 74.7561C57.8244 74.7561 47.29 87.439 47.29 103.537H94.0076Z" fill="#54538D"/>
<path d="M94.0076 105H45V103.049C45 86.4634 56.4504 72.8049 70.1908 72.8049C83.9313 72.8049 95.3817 86.4634 95.3817 103.049V105H94.0076ZM48.6641 101.585H92.1756C91.7176 87.439 82.0992 76.7073 70.1908 76.7073C58.7405 76.7073 49.1221 87.439 48.6641 101.585Z" fill="#0F0E38"/>
<path d="M84.8474 75.7317C83.9314 75.7317 83.4734 74.7561 83.4734 73.7805C83.4734 72.8049 83.9314 71.8293 84.8474 71.8293C89.4276 71.8293 93.0917 67.9268 93.0917 62.561C93.0917 58.6585 90.8016 55.2439 87.1375 53.7805C86.6795 54.2683 86.2215 52.8049 86.6795 51.8293C86.6795 50.8537 87.5955 50.3659 88.5116 50.8537C93.5497 52.3171 96.7558 57.1951 96.7558 63.0488C96.7558 69.8781 91.7177 75.7317 84.8474 75.7317Z" fill="#0F0E38"/>
<path d="M103.626 98.6585H99.5039C98.5879 98.6585 97.6719 97.6829 97.6719 96.7073C97.6719 95.7317 98.5879 94.7561 99.5039 94.7561H101.794C100.878 84.0244 93.5497 75.7317 84.8474 75.7317C83.9314 75.7317 83.0154 74.7561 83.0154 73.7805C83.0154 72.8049 83.4734 72.3171 84.3894 72.3171C95.8398 72.3171 105 83.5366 105 97.1951V99.1464L103.626 98.6585Z" fill="#0F0E38"/>
</svg>
